<svg
    xmlns="http://www.w3.org/2000/svg"
    xmlns:ev="http://www.w3.org/2001/xml-events"
    xmlns:xlink="http://www.w3.org/1999/xlink"
    baseProfile="full"
    version="1.1"
    height="262"
    width="460">

<defs>
    <symbol id="s_branch_voltage" style="overflow:visible">
        <g style="stroke:rgb(0,0,0); stroke-width:1; shape-rendering:crispEdges">
            <line x1="0" y1="0" x2="0" y2="60.0" />
            <circle cx="0" cy="75.0" r="15" style="fill:none;" />
            <line x1="0" y1="90.0" x2="0" y2="150" />
            <line x1="0" y1="63.0" x2="0" y2="70.5" />
            <line x1="-3.75" y1="66.75" x2="3.75" y2="66.75" />
            <line x1="-3.75" y1="83.25" x2="3.75" y2="83.25" />
        </g>
    </symbol>
    <symbol id="s_branch_current" style="overflow:visible">
        <g style="stroke:rgb(0,0,0); stroke-width:1; shape-rendering:crispEdges">
            <line x1="0" y1="0" x2="0" y2="60.0" />
            <circle cx="0" cy="75.0" r="15" style="fill:none;" />
            <line x1="0" y1="90.0" x2="0" y2="150" />

            <line x1="0" y1="65.25" x2="0" y2="84.75" />
            <line x1="0" y1="65.25" x2="-4.5" y2="70.5" />
            <line x1="0" y1="65.25" x2="4.5" y2="70.5" />
        </g>
    </symbol>
    <symbol id="r_branch_shunt" style="overflow:visible">
        <g style="stroke:rgb(0,0,0); stroke-width:1; shape-rendering:crispEdges">
            <line x1="0" y1="0" x2="0" y2="57.0" />
            <line x1="0" y1="57.0" x2="8" y2="60.0" />
            <line x1="8" y1="60.0" x2="-8" y2="66.0" />
            <line x1="-8" y1="66.0" x2="8" y2="72.0" />
            <line x1="8" y1="72.0" x2="-8" y2="78.0" />
            <line x1="-8" y1="78.0" x2="8" y2="84.0" />
            <line x1="8" y1="84.0" x2="-8" y2="90.0" />
            <line x1="-8" y1="90.0" x2="0" y2="93.0" />
            <line x1="0" y1="93.0" x2="0" y2="150" />
        </g>
    </symbol>
    <symbol id="r_branch_series_only" style="overflow:visible">
        <g style="stroke:rgb(0,0,0); stroke-width:1; shape-rendering:crispEdges">
            <line x1="0" y1="0" x2="19.5" y2="0" />
            <line x1="19.5" y1="0" x2="22.5" y2="-8" />
            <line x1="22.5" y1="-8" x2="28.5" y2="8" />
            <line x1="28.5" y1="8" x2="34.5" y2="-8" />
            <line x1="34.5" y1="-8" x2="40.5" y2="8" />
            <line x1="40.5" y1="8" x2="46.5" y2="-8" />
            <line x1="46.5" y1="-8" x2="52.5" y2="8" />
            <line x1="52.5" y1="8" x2="55.5" y2="0" />
            <line x1="55.5" y1="0" x2="75" y2="0" />
        </g>
    </symbol>
    <symbol id="r_branch_series" style="overflow:visible">
        <g style="stroke:rgb(0,0,0); stroke-width:1; shape-rendering:crispEdges">
            <use xlink:href="#r_branch_series_only" x="0" y="0" />
            <line x1="0" y1="150" x2="75" y2="150" />
        </g>
    </symbol>
    <symbol id="bare_branch_shunt" style="overflow:visible">
        <g style="stroke:rgb(0,0,0); stroke-width:1; shape-rendering:crispEdges">
            <line x1="0" y1="0" x2="0" y2="150" />
        </g>
    </symbol>
    <symbol id="bare_branch_series" style="overflow:visible">
        <g style="stroke:rgb(0,0,0); stroke-width:1; shape-rendering:crispEdges">
            <line x1="0" y1="0" x2="75" y2="0" />
            <line x1="0" y1="150" x2="75" y2="150" />
        </g>
    </symbol>
    <symbol id="open_branch_shunt" style="overflow:visible">
        <g style="stroke:rgb(0,0,0); stroke-width:1; shape-rendering:crispEdges">
            <circle cx="0" cy="0" r="2" style="fill:#000000;" />
            <circle cx="0" cy="150" r="2" style="fill:#000000;" />
        </g>
    </symbol>
    <symbol id="c_branch_shunt" style="overflow:visible">
        <g style="stroke:rgb(0,0,0); stroke-width:1; shape-rendering:crispEdges">
            <line x1="0" y1="0" x2="0" y2="72.0" />
            <line x1="-10.0" y1="72.0" x2="10.0" y2="72.0" />
            <line x1="-10.0" y1="78.0" x2="10.0" y2="78.0" />
            <line x1="0" y1="78.0" x2="0" y2="150" />
        </g>
    </symbol>
    <symbol id="c_branch_shunt_half" style="overflow:visible">
        <g style="stroke:rgb(0,0,0); stroke-width:1; shape-rendering:crispEdges">
            <line x1="0" y1="0" x2="0" y2="34.5" />
            <line x1="-10.0" y1="34.5" x2="10.0" y2="34.5" />
            <line x1="-10.0" y1="40.5" x2="10.0" y2="40.5" />
            <line x1="0" y1="40.5" x2="0" y2="75.0" />
        </g>
    </symbol>
    <symbol id="c_branch_series_only" style="overflow:visible">
        <g style="stroke:rgb(0,0,0); stroke-width:1; shape-rendering:crispEdges">
            <line x1="0" y1="0" x2="34.5" y2="0" />
            <line x1="34.5" y1="-10.0" x2="34.5" y2="10.0" />
            <line x1="40.5" y1="-10.0" x2="40.5" y2="10.0" />
            <line x1="40.5" y1="0" x2="75" y2="0" />
        </g>
    </symbol>
    <symbol id="c_branch_series" style="overflow:visible">
        <g style="stroke:rgb(0,0,0); stroke-width:1; shape-rendering:crispEdges">
            <use xlink:href="#c_branch_series_only" x="0" y="0" />
            <line x1="0" y1="150" x2="75" y2="150" />
        </g>
    </symbol>
    <symbol id="l_branch_shunt" style="overflow:visible">
        <g style="stroke:rgb(0,0,0); stroke-width:1; shape-rendering:crispEdges">
            <line x1="0" y1="0" x2="0" y2="57.0" />
            <path d="M0,57.0 c10,0 10,12 0,12 c10,0 10,12 0,12 c10,0 10,12 0,12" style="fill:none;" />
            <line x1="0" y1="93.0" x2="0" y2="150" />
        </g>
    </symbol>
    <symbol id="l_branch_shunt_half" style="overflow:visible">
        <g style="stroke:rgb(0,0,0); stroke-width:1; shape-rendering:crispEdges">
            <line x1="0" y1="0" x2="0" y2="19.5" />
            <path d="M0,19.5 c10,0 10,12 0,12 c10,0 10,12 0,12 c10,0 10,12 0,12" style="fill:none;" />
            <line x1="0" y1="55.5" x2="0" y2="75.0" />
        </g>
    </symbol>
    <symbol id="l_branch_series_only" style="overflow:visible">
        <g style="stroke:rgb(0,0,0); stroke-width:1; shape-rendering:crispEdges">
            <line x1="0" y1="0" x2="19.5" y2="0" />
            <path d="M19.5,0 c0,-10 12,-10 12,0 c0,-10 12,-10 12,0 c0,-10 12,-10 12,0" style="fill:none;" />
            <line x1="55.5" y1="0" x2="75" y2="0" />
        </g>
    </symbol>
    <symbol id="l_branch_series" style="overflow:visible">
        <g style="stroke:rgb(0,0,0); stroke-width:1; shape-rendering:crispEdges">
            <use xlink:href="#l_branch_series_only" x="0" y="0" />
            <line x1="0" y1="150" x2="75" y2="150" />
        </g>
    </symbol>
    <symbol id="lc_branch_shunt_parallel" style="overflow:visible">
        <g style="stroke:rgb(0,0,0); stroke-width:1; shape-rendering:crispEdges">
            <use xlink:href="#c_branch_shunt" x="0" y="0" />
            <use xlink:href="#bare_branch_series" x="0" y="0" />
            <use xlink:href="#l_branch_shunt" x="75" y="0" />
        </g>
    </symbol>
    <symbol id="lc_branch_shunt_series" style="overflow:visible">
        <g style="stroke:rgb(0,0,0); stroke-width:1; shape-rendering:crispEdges">
            <use xlink:href="#c_branch_shunt_half" x="0" y="0" />
            <use xlink:href="#l_branch_shunt_half" x="0" y="75.0" />
        </g>
    </symbol>
    <symbol id="lc_branch_series_parallel" style="overflow:visible">
        <g style="stroke:rgb(0,0,0); stroke-width:1; shape-rendering:crispEdges">
            <line x1="0" y1="0" x2="37.5" y2="0" />
            <line x1="37.5" y1="-27.5" x2="37.5" y2="27.5" />
            <use xlink:href="#c_branch_series_only" x="37.5" y="27.5" />
            <use xlink:href="#l_branch_series_only" x="37.5" y="-27.5" />
            <line x1="112.5" y1="0" x2="150" y2="0" />
            <line x1="112.5" y1="-27.5" x2="112.5" y2="27.5" />
            <line x1="0" y1="150" x2="150" y2="150" />
        </g>
    </symbol>
    <symbol id="lc_branch_series_series" style="overflow:visible">
        <g style="stroke:rgb(0,0,0); stroke-width:1; shape-rendering:crispEdges">
            <use xlink:href="#c_branch_series" x="0" y="0" />
            <use xlink:href="#l_branch_series" x="75" y="0" />
        </g>
    </symbol>
</defs>

<rect width="100%" height="100%" fill="white"/>


    
        <use xlink:href="#s_branch_voltage" x="20" y="92" />
    
        <use xlink:href="#r_branch_series" x="20" y="92" />
    
        <use xlink:href="#l_branch_series" x="95" y="92" />
    
        <use xlink:href="#lc_branch_shunt_series" x="170" y="92" />
    
        <use xlink:href="#l_branch_series" x="170" y="92" />
    
        <use xlink:href="#lc_branch_shunt_series" x="245" y="92" />
    
        <use xlink:href="#l_branch_series" x="245" y="92" />
    
        <use xlink:href="#lc_branch_shunt_series" x="320" y="92" />
    
        <use xlink:href="#l_branch_series" x="320" y="92" />
    
        <use xlink:href="#r_branch_shunt" x="395" y="92" />
    
    
        <text x="57.5" y="64" style = "font-size:12px; font-family:Helvetica; text-anchor:middle">RS</text>
    
        <text x="57.5" y="78" style = "font-size:12px; font-family:Helvetica; text-anchor:middle">50.00 Ω</text>
    
        <text x="132.5" y="62" style = "font-size:12px; font-family:Helvetica; text-anchor:middle">L1</text>
    
        <text x="132.5" y="76" style = "font-size:12px; font-family:Helvetica; text-anchor:middle">220.0 nH</text>
    
        <text x="183" y="126.5" style = "font-size:12px; font-family:Helvetica">C2</text>
    
        <text x="183" y="140.5" style = "font-size:12px; font-family:Helvetica">100.00 pF</text>
    
        <text x="183" y="201.5" style = "font-size:12px; font-family:Helvetica">L2</text>
    
        <text x="183" y="215.5" style = "font-size:12px; font-family:Helvetica">33.00 nH</text>
    
        <text x="207.5" y="62" style = "font-size:12px; font-family:Helvetica; text-anchor:middle">L3</text>
    
        <text x="207.5" y="76" style = "font-size:12px; font-family:Helvetica; text-anchor:middle">270.0 nH</text>
    
        <text x="258" y="126.5" style = "font-size:12px; font-family:Helvetica">C4</text>
    
        <text x="258" y="140.5" style = "font-size:12px; font-family:Helvetica">68.00 pF</text>
    
        <text x="258" y="201.5" style = "font-size:12px; font-family:Helvetica">L4</text>
    
        <text x="258" y="215.5" style = "font-size:12px; font-family:Helvetica">180.0 nH</text>
    
        <text x="282.5" y="62" style = "font-size:12px; font-family:Helvetica; text-anchor:middle">L5</text>
    
        <text x="282.5" y="76" style = "font-size:12px; font-family:Helvetica; text-anchor:middle">270.0 nH</text>
    
        <text x="333" y="126.5" style = "font-size:12px; font-family:Helvetica">C6</text>
    
        <text x="333" y="140.5" style = "font-size:12px; font-family:Helvetica">68.00 pF</text>
    
        <text x="333" y="201.5" style = "font-size:12px; font-family:Helvetica">L6</text>
    
        <text x="333" y="215.5" style = "font-size:12px; font-family:Helvetica">120.0 nH</text>
    
        <text x="357.5" y="62" style = "font-size:12px; font-family:Helvetica; text-anchor:middle">L7</text>
    
        <text x="357.5" y="76" style = "font-size:12px; font-family:Helvetica; text-anchor:middle">150.0 nH</text>
    
        <text x="406" y="164.0" style = "font-size:12px; font-family:Helvetica">RL</text>
    
        <text x="406" y="178.0" style = "font-size:12px; font-family:Helvetica">50.00 Ω</text>
    
        <text x="7" y="259" style = "font-size:12px; font-family:Helvetica">rf-tools.com  |  Jul 30, 2021</text>
    
    <text x="7" y="16" style = "font-size:16px; font-family:Helvetica">7th Order Elliptic Lowpass</text>
    <text x="7" y="32" style = "font-size:12px; font-family:Helvetica">Cutoff Frequency = 40.00 MHz</text>
    <text x="7" y="47" style = "font-size:12px; font-family:Helvetica">Passband Ripple = 0.1 dB; Stopband Attenuation = 50.0 dB</text>


</svg>